HIERARCHY
ROOT Hips
{
    OFFSET   0.000000   0.000000   0.000000
    CHANNELS 6 Xposition Yposition Zposition Zrotation Xrotation Yrotation
    JOINT Chest
    {
        OFFSET   0.000000   8.007240   0.000000
        CHANNELS 3 Zrotation Xrotation Yrotation
        JOINT Chest2
        {
            OFFSET   0.000000  22.077100   0.000000
            CHANNELS 3 Zrotation Xrotation Yrotation
            JOINT Neck
            {
                OFFSET   0.000000  23.254800   0.000000
                CHANNELS 3 Zrotation Xrotation Yrotation
                JOINT Head
                {
                    OFFSET   0.000000  14.370000   1.956600
                    CHANNELS 3 Zrotation Xrotation Yrotation
                    End Site
                    {
                        OFFSET   0.000000  19.566000   0.000000
                    }
                }
            }
            JOINT LeftCollar
            {
                OFFSET   3.911900  19.017000  -0.467064
                CHANNELS 3 Zrotation Xrotation Yrotation
                JOINT LeftShoulder
                {
                    OFFSET  10.383700   0.000000   0.000000
                    CHANNELS 3 Zrotation Xrotation Yrotation
                    JOINT LeftElbow
                    {
                        OFFSET  26.662100   0.001476   0.000517
                        CHANNELS 3 Zrotation Xrotation Yrotation
                        JOINT LeftWrist
                        {
                            OFFSET  28.869000  -0.000025  -0.000106
                            CHANNELS 3 Zrotation Xrotation Yrotation
                            JOINT LeftFinger0
                            {
                                OFFSET   2.044660  -2.323460   3.252850
                                CHANNELS 3 Zrotation Xrotation Yrotation
                                JOINT LeftFinger01
                                {
                                    OFFSET   3.088130   0.000000   0.000000
                                    CHANNELS 3 Zrotation Xrotation Yrotation
                                    JOINT LeftFinger02
                                    {
                                        OFFSET   2.639460   0.000000   0.000000
                                        CHANNELS 3 Zrotation Xrotation Yrotation
                                        End Site
                                        {
                                            OFFSET   2.582190   0.000000   0.000000
                                        }
                                    }
                                }
                            }
                            JOINT LeftFinger1
                            {
                                OFFSET   8.364480   0.000000   3.252850
                                CHANNELS 3 Zrotation Xrotation Yrotation
                                JOINT LeftFinger11
                                {
                                    OFFSET   4.646930   0.000000   0.000000
                                    CHANNELS 3 Zrotation Xrotation Yrotation
                                    JOINT LeftFinger12
                                    {
                                        OFFSET   2.323460   0.000000   0.000000
                                        CHANNELS 3 Zrotation Xrotation Yrotation
                                        End Site
                                        {
                                            OFFSET   2.273050   0.000000   0.000000
                                        }
                                    }
                                }
                            }
                            JOINT LeftFinger2
                            {
                                OFFSET   8.364490   0.000015   1.078090
                                CHANNELS 3 Zrotation Xrotation Yrotation
                                JOINT LeftFinger21
                                {
                                    OFFSET   5.111620   0.000000   0.000000
                                    CHANNELS 3 Zrotation Xrotation Yrotation
                                    JOINT LeftFinger22
                                    {
                                        OFFSET   2.788160   0.000016   0.000000
                                        CHANNELS 3 Zrotation Xrotation Yrotation
                                        End Site
                                        {
                                            OFFSET   2.727660   0.000000   0.000000
                                        }
                                    }
                                }
                            }
                            JOINT LeftFinger3
                            {
                                OFFSET   7.899780   0.000017  -1.078090
                                CHANNELS 3 Zrotation Xrotation Yrotation
                                JOINT LeftFinger31
                                {
                                    OFFSET   4.646930   0.000000   0.000000
                                    CHANNELS 3 Zrotation Xrotation Yrotation
                                    JOINT LeftFinger32
                                    {
                                        OFFSET   2.323470   0.000000   0.000000
                                        CHANNELS 3 Zrotation Xrotation Yrotation
                                        End Site
                                        {
                                            OFFSET   2.273050   0.000000   0.000000
                                        }
                                    }
                                }
                            }
                            JOINT LeftFinger4
                            {
                                OFFSET   7.435090   0.000000  -3.252850
                                CHANNELS 3 Zrotation Xrotation Yrotation
                                JOINT LeftFinger41
                                {
                                    OFFSET   3.717550   0.000000   0.000000
                                    CHANNELS 3 Zrotation Xrotation Yrotation
                                    JOINT LeftFinger42
                                    {
                                        OFFSET   1.858770   0.000000   0.000000
                                        CHANNELS 3 Zrotation Xrotation Yrotation
                                        End Site
                                        {
                                            OFFSET   1.818440   0.000000   0.000000
                                        }
                                    }
                                }
                            }
                        }
                    }
                }
            }
            JOINT RightCollar
            {
                OFFSET  -3.911900  19.017000  -0.467063
                CHANNELS 3 Zrotation Xrotation Yrotation
                JOINT RightShoulder
                {
                    OFFSET -10.383700   0.000019   0.000000
                    CHANNELS 3 Zrotation Xrotation Yrotation
                    JOINT RightElbow
                    {
                        OFFSET -26.662100   0.001175   0.000102
                        CHANNELS 3 Zrotation Xrotation Yrotation
                        JOINT RightWrist
                        {
                            OFFSET -28.869000   0.000016  -0.000079
                            CHANNELS 3 Zrotation Xrotation Yrotation
                            JOINT RightFinger0
                            {
                                OFFSET  -2.044660  -2.323490   3.252850
                                CHANNELS 3 Zrotation Xrotation Yrotation
                                JOINT RightFinger01
                                {
                                    OFFSET  -3.088140   0.000000   0.000000
                                    CHANNELS 3 Zrotation Xrotation Yrotation
                                    JOINT RightFinger02
                                    {
                                        OFFSET  -2.639460   0.000000   0.000000
                                        CHANNELS 3 Zrotation Xrotation Yrotation
                                        End Site
                                        {
                                            OFFSET  -2.582190   0.000000   0.000000
                                        }
                                    }
                                }
                            }
                            JOINT RightFinger1
                            {
                                OFFSET  -8.364480   0.000000   3.252850
                                CHANNELS 3 Zrotation Xrotation Yrotation
                                JOINT RightFinger11
                                {
                                    OFFSET  -4.646930   0.000000   0.000000
                                    CHANNELS 3 Zrotation Xrotation Yrotation
                                    JOINT RightFinger12
                                    {
                                        OFFSET  -2.323470   0.000000   0.000000
                                        CHANNELS 3 Zrotation Xrotation Yrotation
                                        End Site
                                        {
                                            OFFSET  -2.273050   0.000000   0.000000
                                        }
                                    }
                                }
                            }
                            JOINT RightFinger2
                            {
                                OFFSET  -8.364480   0.000000   1.078090
                                CHANNELS 3 Zrotation Xrotation Yrotation
                                JOINT RightFinger21
                                {
                                    OFFSET  -5.111620   0.000000   0.000000
                                    CHANNELS 3 Zrotation Xrotation Yrotation
                                    JOINT RightFinger22
                                    {
                                        OFFSET  -2.788160   0.000000   0.000000
                                        CHANNELS 3 Zrotation Xrotation Yrotation
                                        End Site
                                        {
                                            OFFSET  -2.727660   0.000000   0.000000
                                        }
                                    }
                                }
                            }
                            JOINT RightFinger3
                            {
                                OFFSET  -7.899780   0.000000  -1.078090
                                CHANNELS 3 Zrotation Xrotation Yrotation
                                JOINT RightFinger31
                                {
                                    OFFSET  -4.646930   0.000000   0.000000
                                    CHANNELS 3 Zrotation Xrotation Yrotation
                                    JOINT RightFinger32
                                    {
                                        OFFSET  -2.323470   0.000000   0.000000
                                        CHANNELS 3 Zrotation Xrotation Yrotation
                                        End Site
                                        {
                                            OFFSET  -2.273050   0.000000   0.000000
                                        }
                                    }
                                }
                            }
                            JOINT RightFinger4
                            {
                                OFFSET  -7.435090   0.000000  -3.252850
                                CHANNELS 3 Zrotation Xrotation Yrotation
                                JOINT RightFinger41
                                {
                                    OFFSET  -3.717550   0.000000   0.000000
                                    CHANNELS 3 Zrotation Xrotation Yrotation
                                    JOINT RightFinger42
                                    {
                                        OFFSET  -1.858770   0.000000   0.000000
                                        CHANNELS 3 Zrotation Xrotation Yrotation
                                        End Site
                                        {
                                            OFFSET  -1.818440   0.000000   0.000000
                                        }
                                    }
                                }
                            }
                        }
                    }
                }
            }
        }
    }
    JOINT LeftHip
    {
        OFFSET   9.783040   0.000000   0.000000
        CHANNELS 3 Zrotation Xrotation Yrotation
        JOINT LeftKnee
        {
            OFFSET   0.000032 -41.789100  -0.002222
            CHANNELS 3 Zrotation Xrotation Yrotation
            JOINT LeftAnkle
            {
                OFFSET   0.000087 -41.133200  -0.000135
                CHANNELS 3 Zrotation Xrotation Yrotation
                JOINT LeftToe
                {
                    OFFSET   0.000000  -6.358960  14.674500
                    CHANNELS 3 Zrotation Xrotation Yrotation
                    End Site
                    {
                        OFFSET   0.000000   0.000000   3.913200
                    }
                }
            }
        }
    }
    JOINT RightHip
    {
        OFFSET  -9.783040   0.000000   0.000000
        CHANNELS 3 Zrotation Xrotation Yrotation
        JOINT RightKnee
        {
            OFFSET   0.000047 -41.789100  -0.000896
            CHANNELS 3 Zrotation Xrotation Yrotation
            JOINT RightAnkle
            {
                OFFSET  -0.000117 -41.133300  -0.000248
                CHANNELS 3 Zrotation Xrotation Yrotation
                JOINT RightToe
                {
                    OFFSET   0.000000  -6.358970  14.674500
                    CHANNELS 3 Zrotation Xrotation Yrotation
                    End Site
                    {
                        OFFSET   0.000000   0.000000   3.913200
                    }
                }
            }
        }
    }
}
MOTION
Frames: 4
Frame Time:   0.016667
 -1.445500  89.404300   0.992629  -3.018620  -6.804520   0.119480   1.278630   5.312800  -0.547391   2.625440  10.611700  -1.222220   1.100850  -1.509490   0.026862   1.808190  -3.058000   6.683510  -7.206040   1.348630   0.905633 -69.520300  20.603800 -10.892900  -2.645290  -3.606110 -11.998400   7.576430  -4.251640  12.475900  43.030900  30.171200 -66.676600 -20.796200   0.006404   0.002531  -5.400990  -0.001699   0.001657 -32.942300   6.670540 -10.161100 -27.446200   0.000370   0.008935 -19.209600  -0.002435   0.005042 -28.524000   3.137200  -5.748670 -38.818200   0.003800  -0.004352 -25.852300   0.006529  -0.006410 -28.675100   1.003510  -1.833480 -39.049400  -0.000336   0.001218 -26.006900   0.002661  -0.006054 -37.917400  -0.491727   0.639160 -56.880300  -0.001640  -0.016789 -37.882300   0.000099  -0.004079   8.738260  -1.796890  11.817500  67.752900  11.601200  -1.519740   0.277551  -3.829370  11.939900  -9.914480 -13.270100   9.715470 -33.897900  21.778100  49.970700  34.496300  -0.004071   0.002902  12.248100  -0.002604   0.005163  29.393500   3.961970   6.992740  24.247300   0.001457   0.003382  16.962600  -0.000452  -0.001926  28.638600   3.136560   5.721630  43.182000   0.006107   0.000841  28.759200   0.007669   0.003169  51.168200   1.893920   1.523790  54.224100  -0.002243   0.004103  40.011900   0.007974  -0.000634  52.533000  -5.545610  -4.233530  79.107000   0.001748  -0.000968  52.685300   0.004233  -0.001094   4.049350  11.121200   1.753460   1.130930   0.472576   7.580480  -3.052870  -4.394180  -0.778237  -0.000000   0.000000  -0.000000   2.994940   5.145890  -2.030460   1.789960   4.953620  -3.298390  -5.951070  -2.979000  -4.763150  -0.000000   0.000000   0.000000
 -1.445580  89.404300   0.999550  -3.015320  -6.814110   0.147337   1.278620   5.316140  -0.545332   2.625300  10.618400  -1.218170   1.100850  -1.519560   0.026866   1.810780  -3.078340   6.698980  -7.206060   1.336040   0.914947 -69.510600  20.595600 -10.892300  -2.646930  -3.570710 -12.039600   7.578290  -4.256600  12.462500  43.023700  30.155400 -66.651700 -20.792400   0.006403   0.002506  -5.401040  -0.001698   0.001649 -32.943800   6.666380 -10.155400 -27.446200   0.000367   0.008941 -19.209500  -0.002422   0.005045 -28.523800   3.138350  -5.750730 -38.818200   0.003800  -0.004354 -25.852300   0.006534  -0.006416 -28.675400   0.999724  -1.826520 -39.060300  -0.000335   0.001231 -26.014200   0.002669  -0.006048 -37.923600  -0.491744   0.639140 -56.889500  -0.001639  -0.016801 -37.888400   0.000070  -0.004069   8.731070  -1.809460  11.832100  67.741100  11.666400  -1.507040   0.280252  -3.743990  11.938700  -9.889810 -13.268000   9.704230 -33.882700  21.787600  49.979600  34.519600  -0.004046   0.002880  12.259800  -0.002618   0.005162  29.389000   3.946500   6.966840  24.242400   0.001459   0.003384  16.962100  -0.000452  -0.001929  28.649500   3.140320   5.725820  43.204800   0.006109   0.000840  28.774500   0.007674   0.003169  51.132600   1.897160   1.528320  54.225300  -0.002245   0.004098  40.005400   0.007967  -0.000619  52.516500  -5.538860  -4.231940  79.081900   0.001737  -0.000950  52.668500   0.004230  -0.001092   4.048630  11.141200   1.753770   1.130230   0.452713   7.569670  -3.052100  -4.385090  -0.793887   0.000000   0.000000   0.000000   3.004330   5.157940  -2.040400   1.785680   4.953090  -3.310740  -5.951600  -2.980170  -4.770510   0.000000   0.000000   0.000000
 -1.445720  89.404200   1.010690  -3.008970  -6.830610   0.200806   1.278550   5.322780  -0.542313   2.624980  10.631800  -1.212260   1.100840  -1.537140   0.026872   1.811970  -3.113850   6.725390  -7.206000   1.314740   0.926412 -69.497700  20.581600 -10.891400  -2.648790  -3.510560 -12.106000   7.583980  -4.266730  12.449200  43.013900  30.132700 -66.610900 -20.788500   0.006402   0.002481  -5.401090  -0.001690   0.001624 -32.947100   6.656900 -10.141500 -27.446200   0.000361   0.008952 -19.209300  -0.002387   0.005055 -28.523500   3.139500  -5.752800 -38.818300   0.003801  -0.004357 -25.852200   0.006544  -0.006431 -28.676000   0.991446  -1.811320 -39.077100  -0.000335   0.001264 -26.025400   0.002692  -0.006034 -37.933900  -0.491785   0.639120 -56.904900  -0.001638  -0.016829 -37.898700   0.000000  -0.004044   8.719860  -1.831790  11.854400  67.725500  11.771100  -1.494550   0.286936  -3.596570  11.936700  -9.854810 -13.251100   9.681350 -33.869800  21.794500  49.994600  34.560000  -0.003984   0.002831  12.280000  -0.002645   0.005157  29.386000   3.925000   6.930280  24.237600   0.001465   0.003399  16.961600  -0.000451  -0.001936  28.665400   3.148160   5.736220  43.237200   0.006112   0.000839  28.796100   0.007679   0.003171  51.053800   1.904440   1.538500  54.229000  -0.002250   0.004086  39.990700   0.007949  -0.000579  52.486400  -5.526490  -4.228460  79.035900   0.001713  -0.000904  52.637900   0.004221  -0.001088   4.047370  11.171300   1.754150   1.128880   0.424463   7.549790  -3.050050  -4.371410  -0.825553   0.000000   0.000000   0.000000   3.017580   5.178250  -2.054220   1.780350   4.952500  -3.335860  -5.952860  -2.983770  -4.787750   0.000000   0.000000   0.000000
 -1.445850  89.404200   1.018810  -3.002030  -6.844660   0.259167   1.278480   5.330300  -0.540791   2.624780  10.646900  -1.209390   1.096870  -1.553540   0.026881   1.804830  -3.146970   6.747980  -7.208990   1.297320   0.928919 -69.492700  20.566200 -10.894600  -2.649400  -3.454720 -12.157700   7.596400  -4.278930  12.458700  43.011500  30.119300 -66.574000 -20.791500   0.006402   0.002494  -5.400590  -0.001667   0.001576 -32.952500   6.642410 -10.118600 -27.446200   0.000352   0.008962 -19.209400  -0.002334   0.005077 -28.525000   3.132610  -5.740070 -38.817800   0.003805  -0.004361 -25.852200   0.006559  -0.006452 -28.676700   0.979506  -1.789460 -39.087100  -0.000334   0.001314 -26.032000   0.002729  -0.006011 -37.943000  -0.491846   0.639172 -56.918400  -0.001639  -0.016868 -37.907700  -0.000134  -0.004009   8.713450  -1.852240  11.867700  67.721300  11.843800  -1.506060   0.294937  -3.466050  11.928300  -9.844620 -13.196800   9.652560 -33.847300  21.761600  49.996200  34.594800  -0.003888   0.002758  12.297400  -0.002674   0.005137  29.388600   3.918540   6.918740  24.238600   0.001473   0.003434  16.963800  -0.000455  -0.001947  28.672300   3.160770   5.756890  43.249000   0.006114   0.000841  28.803900   0.007675   0.003172  50.950100   1.914160   1.552110  54.235600  -0.002252   0.004068  39.971200   0.007920  -0.000516  52.456300  -5.514010  -4.223700  78.989600   0.001676  -0.000829  52.607100   0.004206  -0.001080   4.046280  11.190900   1.753380   1.126990   0.410778   7.529930  -3.046420  -4.362120  -0.863649   0.000000   0.000000   0.000000   3.022740   5.194820  -2.058120   1.780850   4.954450  -3.367470  -5.954610  -2.990030  -4.812030   0.000000   0.000000   0.000000
